<svg xmlns="http://www.w3.org/2000/svg" width="45.9" height="45.9" viewBox="0 0 45.9 45.9">
  <g id="Group_223" data-name="Group 223" transform="translate(0)">
    <g id="Group_17" data-name="Group 17" transform="translate(17.034 10.2)">
      <path id="Path_18" data-name="Path 18" d="M971.5,358.172H967.94v12.735h-5.3V358.172H960.13v-4.488h2.506v-2.914a6.3,6.3,0,0,1,.408-2.3,4.472,4.472,0,0,1,1.6-2.127,5.6,5.6,0,0,1,3.322-.933l3.934.029v4.371h-2.856a1.129,1.129,0,0,0-.729.233,1.227,1.227,0,0,0-.379.991v2.652h4.022Z" transform="translate(-960.13 -345.407)"/>
    </g>
    <path id="Path_204" data-name="Path 204" d="M959.7,377.307h0a22.95,22.95,0,0,1-22.95-22.95h0a22.95,22.95,0,0,1,22.95-22.95h0a22.95,22.95,0,0,1,22.95,22.95h0A22.95,22.95,0,0,1,959.7,377.307Z" transform="translate(-936.75 -331.407)"/>
    <g id="Group_129" data-name="Group 129" transform="translate(17.034 10.2)">
      <path id="Path_237" data-name="Path 237" d="M971.5,358.172H967.94v12.735h-5.3V358.172H960.13v-4.488h2.506v-2.914a6.3,6.3,0,0,1,.408-2.3,4.472,4.472,0,0,1,1.6-2.127,5.6,5.6,0,0,1,3.322-.933l3.934.029v4.371h-2.856a1.129,1.129,0,0,0-.729.233,1.227,1.227,0,0,0-.379.991v2.652h4.022Z" transform="translate(-960.13 -345.407)" fill="#fff"/>
    </g>
  </g>
</svg>
