<svg id="Group_221" data-name="Group 221" xmlns="http://www.w3.org/2000/svg" width="45.9" height="45.9" viewBox="0 0 45.9 45.9">
  <g id="Group_39" data-name="Group 39" transform="translate(10.273 10.2)">
    <path id="Path_40" data-name="Path 40" d="M830.809,633.073a1.852,1.852,0,0,1,1.341.538,1.748,1.748,0,0,1,.554,1.3v21.857a1.7,1.7,0,0,1-.554,1.282,1.844,1.844,0,0,1-1.311.525H809.214a1.838,1.838,0,0,1-1.311-.525,1.7,1.7,0,0,1-.554-1.282V634.908a1.745,1.745,0,0,1,.554-1.3,1.851,1.851,0,0,1,1.341-.538h21.566Zm-16.116,7.708a2.041,2.041,0,0,0,0-2.856,2.118,2.118,0,0,0-1.545-.568,2.171,2.171,0,0,0-1.559.568,1.889,1.889,0,0,0-.6,1.428,1.909,1.909,0,0,0,.583,1.428,2.076,2.076,0,0,0,1.516.568h.029A2.152,2.152,0,0,0,814.693,640.781Zm.35,2.143h-3.818v11.511h3.818Zm13.785,4.9a5.584,5.584,0,0,0-1.253-3.9,4.527,4.527,0,0,0-5.45-.613,4.514,4.514,0,0,0-1.137,1.254v-1.632H817.17q.028.67,0,6.149v5.362h3.818v-6.441a2.86,2.86,0,0,1,.117-.932,2.32,2.32,0,0,1,.7-.961,1.935,1.935,0,0,1,1.282-.438,1.68,1.68,0,0,1,1.486.729,3.4,3.4,0,0,1,.437,1.866v6.178h3.818Z" transform="translate(-807.349 -633.073)"/>
  </g>
  <path id="Path_182" data-name="Path 182" d="M816.2,664.973h0a22.95,22.95,0,0,1-22.95-22.95h0a22.95,22.95,0,0,1,22.95-22.95h0a22.95,22.95,0,0,1,22.95,22.95h0A22.95,22.95,0,0,1,816.2,664.973Z" transform="translate(-793.249 -619.073)"/>
  <g id="Group_151" data-name="Group 151" transform="translate(10.273 10.2)">
    <path id="Path_259" data-name="Path 259" d="M830.809,633.073a1.852,1.852,0,0,1,1.341.538,1.748,1.748,0,0,1,.554,1.3v21.857a1.7,1.7,0,0,1-.554,1.282,1.844,1.844,0,0,1-1.311.525H809.214a1.838,1.838,0,0,1-1.311-.525,1.7,1.7,0,0,1-.554-1.282V634.908a1.745,1.745,0,0,1,.554-1.3,1.851,1.851,0,0,1,1.341-.538h21.566Zm-16.116,7.708a2.041,2.041,0,0,0,0-2.856,2.118,2.118,0,0,0-1.545-.568,2.171,2.171,0,0,0-1.559.568,1.889,1.889,0,0,0-.6,1.428,1.909,1.909,0,0,0,.583,1.428,2.076,2.076,0,0,0,1.516.568h.029A2.152,2.152,0,0,0,814.693,640.781Zm.35,2.143h-3.818v11.511h3.818Zm13.785,4.9a5.584,5.584,0,0,0-1.253-3.9,4.527,4.527,0,0,0-5.45-.613,4.514,4.514,0,0,0-1.137,1.254v-1.632H817.17q.028.67,0,6.149v5.362h3.818v-6.441a2.86,2.86,0,0,1,.117-.932,2.32,2.32,0,0,1,.7-.961,1.935,1.935,0,0,1,1.282-.438,1.68,1.68,0,0,1,1.486.729,3.4,3.4,0,0,1,.437,1.866v6.178h3.818Z" transform="translate(-807.349 -633.073)" fill="#fff"/>
  </g>
</svg>
