<svg id="Group_220" data-name="Group 220" xmlns="http://www.w3.org/2000/svg" width="45.9" height="45.9" viewBox="0 0 45.9 45.9">
  <g id="Group_83" data-name="Group 83" transform="translate(10.185 12.589)">
    <path id="Path_84" data-name="Path 84" d="M974.136,1146.037v.67a15.144,15.144,0,0,1-.962,5.246,15.632,15.632,0,0,1-2.856,4.779,14.163,14.163,0,0,1-4.663,3.5,15.21,15.21,0,0,1-6.382,1.341,14.923,14.923,0,0,1-4.255-.612,14.463,14.463,0,0,1-3.789-1.719q.612.059,1.253.058a10.4,10.4,0,0,0,3.468-.583,10.868,10.868,0,0,0,3.031-1.632,5.232,5.232,0,0,1-3.031-1.064,5.048,5.048,0,0,1-1.836-2.579,5.219,5.219,0,0,0,.962.087,5.4,5.4,0,0,0,1.37-.175,5.058,5.058,0,0,1-2.127-.976,5.193,5.193,0,0,1-1.5-1.837,5.454,5.454,0,0,1-.568-2.317v-.088a4.9,4.9,0,0,0,2.39.67,5.267,5.267,0,0,1-1.7-1.88,5.12,5.12,0,0,1-.627-2.492,5.2,5.2,0,0,1,.7-2.623,14.942,14.942,0,0,0,10.783,5.478,6.07,6.07,0,0,1-.116-1.195,5.1,5.1,0,0,1,.7-2.623,5.281,5.281,0,0,1,1.909-1.909,5.047,5.047,0,0,1,2.608-.714,5.189,5.189,0,0,1,3.818,1.662,10.174,10.174,0,0,0,3.322-1.282,5.067,5.067,0,0,1-.889,1.676,5.378,5.378,0,0,1-1.413,1.238,10.638,10.638,0,0,0,3.031-.845A10.964,10.964,0,0,1,974.136,1146.037Z" transform="translate(-951.23 -1140.849)"/>
  </g>
  <path id="Path_145" data-name="Path 145" d="M960.2,1169.47h0a22.95,22.95,0,0,1-22.95-22.95h0a22.95,22.95,0,0,1,22.95-22.95h0a22.95,22.95,0,0,1,22.95,22.95h0A22.948,22.948,0,0,1,960.2,1169.47Z" transform="translate(-937.25 -1123.57)"/>
  <g id="Group_195" data-name="Group 195" transform="translate(10.185 12.589)">
    <path id="Path_303" data-name="Path 303" d="M974.136,1146.037v.67a15.144,15.144,0,0,1-.962,5.246,15.632,15.632,0,0,1-2.856,4.779,14.163,14.163,0,0,1-4.663,3.5,15.21,15.21,0,0,1-6.382,1.341,14.923,14.923,0,0,1-4.255-.612,14.463,14.463,0,0,1-3.789-1.719q.612.059,1.253.058a10.4,10.4,0,0,0,3.468-.583,10.868,10.868,0,0,0,3.031-1.632,5.232,5.232,0,0,1-3.031-1.064,5.048,5.048,0,0,1-1.836-2.579,5.219,5.219,0,0,0,.962.087,5.4,5.4,0,0,0,1.37-.175,5.058,5.058,0,0,1-2.127-.976,5.193,5.193,0,0,1-1.5-1.837,5.454,5.454,0,0,1-.568-2.317v-.088a4.9,4.9,0,0,0,2.39.67,5.267,5.267,0,0,1-1.7-1.88,5.12,5.12,0,0,1-.627-2.492,5.2,5.2,0,0,1,.7-2.623,14.942,14.942,0,0,0,10.783,5.478,6.07,6.07,0,0,1-.116-1.195,5.1,5.1,0,0,1,.7-2.623,5.281,5.281,0,0,1,1.909-1.909,5.047,5.047,0,0,1,2.608-.714,5.189,5.189,0,0,1,3.818,1.662,10.174,10.174,0,0,0,3.322-1.282,5.067,5.067,0,0,1-.889,1.676,5.378,5.378,0,0,1-1.413,1.238,10.638,10.638,0,0,0,3.031-.845A10.964,10.964,0,0,1,974.136,1146.037Z" transform="translate(-951.23 -1140.849)" fill="#fff"/>
  </g>
</svg>
